#!OML:ASF C:\ViconDB\ViconDB\414\Spring2016\041811\Spring2016.ASF
:FULLY-SPECIFIED
:DEGREES
350
root 9.59061 18.32 -40.0715 -180.522 -2.27954 -180.58
lowerback 0.811567 -0.846292 -4.75081
upperback 1.5928 -1.16768 0.601073
thorax 1.29028 -0.659811 3.27707
lowerneck -10.6775 -4.40992 -9.57261
upperneck 19.8854 -6.21524 13.7001
head 8.67767 -1.95284 5.68464
rclavicle -1.66544e-014 7.15625e-015
rhumerus -50.6589 -25.6442 -76.3032
rradius 31.7159
rwrist 43.2477
rhand -33.045 -13.2109
rfingers 7.12502
rthumb -6.25766 -43.0985
lclavicle -1.66544e-014 7.15625e-015
lhumerus -26.4328 -14.9941 89.2162
lradius 38.6301
lwrist -25.5751
lhand -31.3427 14.3388
lfingers 7.12502
lthumb -4.61406 44.2686
rfemur 219.617 62.2006 -120.185
rtibia 26.2575
rfoot -71.1672 -44.4522
rtoes -3.07619e-014
lfemur 12.3845 -5.23896 -23.3148
ltibia 6.75466
lfoot -18.0884 3.65716
ltoes 1.17283e-014
351
root 9.60233 18.2873 -40.2389 -180.649 -2.42563 -180.953
lowerback 0.949687 -0.873029 -5.11179
upperback 1.65685 -1.21358 0.548855
thorax 1.29032 -0.690017 3.4275
lowerneck -10.633 -4.37661 -9.52468
upperneck 19.9318 -6.16826 13.6592
head 8.67571 -1.92885 5.66927
rclavicle 1.31415e-014 4.29872e-015
rhumerus -50.7171 -25.8138 -76.089
rradius 31.4903
rwrist 43.423
rhand -32.9764 -13.1014
rfingers 7.12502
rthumb -6.19148 -42.9909
lclavicle 1.31415e-014 4.29872e-015
lhumerus -26.2817 -14.6799 89.1031
lradius 38.5904
lwrist -25.9964
lhand -31.2953 14.1779
lfingers 7.12502
lthumb -4.56831 44.1086
rfemur 221.723 62.8916 -118.173
rtibia 26.1495
rfoot -73.3705 -44.2879
rtoes -3.91357e-014
lfemur 12.767 -4.83204 -23.5573
ltibia 7.25664
lfoot -18.3031 2.96576
ltoes 7.03698e-014
352
root 9.61224 18.2422 -40.4154 -180.784 -2.62491 -181.011
lowerback 1.06274 -0.92289 -5.02568
upperback 1.68669 -1.28724 0.546206
thorax 1.2625 -0.726396 3.37766
lowerneck -10.6491 -4.30404 -9.37005
upperneck 20.1744 -6.04889 13.4131
head 8.73194 -1.87336 5.57712
rclavicle -1.70916e-014 -7.95139e-016
rhumerus -50.8889 -25.9429 -75.8522
rradius 31.3934
rwrist 43.7222
rhand -32.5947 -12.8131
rfingers 7.12502
rthumb -5.82293 -42.7131
lclavicle -1.70916e-014 -7.95139e-016
lhumerus -26.2413 -14.3654 89.0795
lradius 38.4826
lwrist -26.0532
lhand -31.4389 14.1221
lfingers 7.12502
lthumb -4.70695 44.0498
rfemur 223.843 63.7606 -115.778
rtibia 25.9784
rfoot -75.8165 -44.0477
rtoes 4.8081e-014
lfemur 12.9689 -4.48693 -23.4541
ltibia 8.28194
lfoot -18.7142 2.21689
ltoes 1.66979e-014
353
root 9.62675 18.2041 -40.5928 -180.805 -2.84245 -180.985
lowerback 1.03749 -0.986301 -4.92433
upperback 1.71285 -1.37017 0.591729
thorax 1.31011 -0.76872 3.36643
lowerneck -10.6636 -4.32186 -9.49541
upperneck 20.2797 -6.07174 13.5441
head 8.78179 -1.87298 5.64837
rclavicle 1.18747e-014 -4.75453e-015
rhumerus -51.1331 -26.5148 -75.3387
rradius 31.3572
rwrist 44.3045
rhand -32.4775 -12.7333
rfingers 7.12502
rthumb -5.70973 -42.6364
lclavicle 1.18747e-014 -4.75453e-015
lhumerus -26.1961 -13.9373 89.0464
lradius 38.3104
lwrist -26.2359
lhand -31.5292 14.1179
lfingers 7.12502
lthumb -4.79413 44.0437
rfemur 226.118 64.6678 -113.065
rtibia 25.8142
rfoot -78.1797 -44.1168
rtoes -7.81224e-014
lfemur 12.956 -4.1767 -23.2112
ltibia 9.47151
lfoot -19.1848 1.43965
ltoes 7.87187e-014
354
root 9.63777 18.1685 -40.7734 -180.826 -3.04683 -180.988
lowerback 1.05199 -1.04781 -4.70924
upperback 1.68256 -1.45164 0.560847
thorax 1.27164 -0.80444 3.21388
lowerneck -10.6774 -4.30388 -9.40093
upperneck 20.499 -6.04345 13.4577
head 8.84949 -1.84727 5.61337
rclavicle 1.96882e-014 -1.65861e-015
rhumerus -51.2035 -26.3979 -75.3717
rradius 31.1957
rwrist 44.3648
rhand -32.4247 -12.9033
rfingers 7.12502
rthumb -5.65876 -42.8078
lclavicle 1.96882e-014 -1.65861e-015
lhumerus -26.3378 -13.5899 88.9699
lradius 38.1318
lwrist -26.3106
lhand -31.6192 13.8087
lfingers 7.12502
lthumb -4.88105 43.7325
rfemur 228.454 65.6561 -110.317
rtibia 25.6854
rfoot -80.6579 -43.7065
rtoes 2.05245e-014
lfemur 12.8801 -3.85118 -23.0058
ltibia 10.7919
lfoot -19.5553 0.661887
ltoes -7.63333e-014
355
root 9.64974 18.1281 -40.9599 -180.836 -3.27761 -181.107
lowerback 0.958252 -1.11214 -4.62766
upperback 1.6719 -1.53133 0.503601
thorax 1.3165 -0.843285 3.10658
lowerneck -10.6184 -4.26286 -9.26816
upperneck 20.6631 -5.98867 13.3734
head 8.88013 -1.80894 5.57376
rclavicle -2.4522e-015 -2.60905e-015
rhumerus -51.3885 -26.5264 -75.1922
rradius 31.0987
rwrist 44.8203
rhand -32.5284 -12.949
rfingers 7.12502
rthumb -5.75894 -42.8507
lclavicle -2.4522e-015 -2.60905e-015
lhumerus -26.4323 -13.1311 88.9353
lradius 37.7924
lwrist -26.6084
lhand -31.5078 14.1076
lfingers 7.12502
lthumb -4.7735 44.0338
rfemur 219.989 63.8357 -119.501
rtibia 25.5851
rfoot -75.5569 -45.3926
rtoes -9.14409e-015
lfemur 12.8041 -3.6761 -22.9555
ltibia 12.1181
lfoot -19.9188 0.022924
ltoes -5.48646e-014
356
root 9.66653 18.0959 -41.15 -180.864 -3.60267 -181.208
lowerback 0.849949 -1.21579 -4.70857
upperback 1.67757 -1.66371 0.57625
thorax 1.39978 -0.912708 3.22323
lowerneck -10.7078 -4.24098 -9.04309
upperneck 20.9738 -5.90784 12.8737
head 8.96999 -1.79146 5.375
rclavicle 1.7316e-014 -4.47266e-016
rhumerus -51.4312 -26.5293 -74.9561
rradius 30.9685
rwrist 44.7938
rhand -32.792 -13.0494
rfingers 7.12502
rthumb -6.0134 -42.9441
lclavicle 1.7316e-014 -4.47266e-016
lhumerus -26.537 -12.5472 89.0705
lradius 37.3938
lwrist -26.8297
lhand -31.6118 14.2359
lfingers 7.12502
lthumb -4.87388 44.1598
rfemur 212.786 61.7058 -127.312
rtibia 25.5343
rfoot -70.3786 -46.6391
rtoes -5.68524e-014
lfemur 12.7614 -3.8267 -22.9361
ltibia 13.3928
lfoot -20.1677 -0.342145
ltoes 1.51076e-014
